<svg width="2878" height="2088" viewBox="0 0 2878 2088" fill="none" xmlns="http://www.w3.org/2000/svg">
<path d="M1448.78 396.051C1531.56 396.051 1611.98 412.108 1687.82 443.784C1761.16 474.417 1827.22 518.319 1884.16 574.29C1941.14 630.292 1986.19 695.623 2018.07 768.476C2051.09 843.899 2068.52 924.242 2069.87 1007.26C2071.24 1091.14 2056.15 1172.78 2025 1249.9C1994.92 1324.39 1951.22 1391.57 1895.09 1449.57C1838.96 1507.56 1773.26 1553.44 1699.78 1585.95C1623.72 1619.6 1542.61 1637.35 1458.75 1638.72C1455.25 1638.79 1451.87 1638.8 1448.38 1638.8C1365.61 1638.8 1285.18 1622.75 1209.34 1591.07C1136.01 1560.44 1069.94 1516.53 1013.01 1460.56C956.022 1404.56 910.968 1339.23 879.089 1266.38C846.073 1190.95 828.646 1110.61 827.291 1027.59C825.921 943.709 841.012 862.073 872.159 784.953C902.247 710.449 945.946 643.281 1002.07 585.285C1058.2 527.289 1123.9 481.41 1197.38 448.908C1273.44 415.254 1354.55 397.5 1438.41 396.129C1441.92 396.067 1445.29 396.051 1448.78 396.051ZM1448.78 394.494C1445.31 394.494 1441.87 394.525 1438.38 394.572C1094.39 400.194 820.081 683.632 825.719 1027.62C831.294 1368.13 1109.09 1640.37 1448.38 1640.37C1451.85 1640.37 1455.29 1640.34 1458.78 1640.3C1802.77 1634.67 2077.08 1351.24 2071.44 1007.25C2065.87 666.735 1788.07 394.494 1448.78 394.494Z" fill="#6443FE"/>
<path d="M1448.37 396.067C1530.05 396.067 1609.91 412.325 1685.72 444.407C1758.92 475.382 1825.1 519.627 1882.41 575.925C1939.79 632.27 1985.21 697.663 2017.47 770.313C2050.9 845.658 2068.55 925.379 2069.89 1007.26C2071.24 1089.71 2057.06 1168.12 2027.72 1240.31C1999.64 1309.39 1958.23 1371.61 1904.64 1425.23C1852.17 1477.72 1789.44 1520.6 1718.21 1552.7C1646.58 1584.96 1568.45 1605.35 1486.01 1613.28C1465.7 1615.24 1445.14 1616.22 1424.94 1616.22C1341.02 1616.22 1259.96 1599.65 1183.97 1566.98C1110.48 1535.36 1045.2 1490.26 989.943 1432.89C936.09 1377 894.587 1312.35 866.586 1240.74C837.494 1166.38 824.272 1087.61 827.294 1006.64C830.626 917.327 848.66 833.651 880.913 757.901C912.045 684.815 955.791 620.403 1010.97 566.487C1065.46 513.242 1129.72 471.52 1201.96 442.507C1275.16 413.104 1354.72 397.499 1438.44 396.129C1441.75 396.082 1445.09 396.051 1448.4 396.051M1448.37 394.509C1445.03 394.509 1441.73 394.54 1438.38 394.587C1098.9 400.147 839.348 640.493 825.705 1006.58C813.137 1344.03 1085.78 1617.78 1424.93 1617.78C1445.13 1617.78 1465.53 1616.81 1486.15 1614.82C1819.08 1582.78 2076.99 1346.72 2071.43 1007.25C2065.93 671.11 1783.48 394.509 1448.35 394.509H1448.37Z" fill="#6F50FE"/>
<path d="M1447.96 396.066C1528.54 396.066 1607.83 412.543 1683.62 445.029C1756.68 476.348 1822.97 520.935 1880.69 577.576C1938.45 634.263 1984.25 699.734 2016.87 772.182C2050.74 847.433 2068.58 926.531 2069.89 1007.26C2071.22 1088.31 2057.9 1163.65 2030.29 1231.2C2004.13 1295.22 1964.96 1352.75 1913.86 1402.18C1817.7 1495.23 1679.18 1559.41 1513.28 1587.8C1476.87 1594.03 1440.12 1597.19 1404.03 1597.19C1319.25 1597.19 1237.85 1580.24 1162.11 1546.84C1088.92 1514.56 1024.68 1468.63 971.151 1410.31C919.571 1354.12 880.809 1289.44 855.923 1218.1C830.055 1143.91 820.415 1065.7 827.283 985.648C835.412 890.915 856.452 805.167 889.826 730.772C921.985 659.103 965.778 597.494 1020 547.628C1072.77 499.101 1135.54 461.568 1206.58 436.075C1276.59 410.939 1354.62 397.499 1438.43 396.129C1441.64 396.082 1444.76 396.051 1447.98 396.051M1447.96 394.509C1444.76 394.509 1441.61 394.54 1438.4 394.587C1103.43 400.069 859.022 597.229 825.725 985.539C796.93 1321.29 1063.08 1598.76 1404.03 1598.76C1439.8 1598.76 1476.37 1595.71 1513.54 1589.36C1834.59 1534.41 2076.93 1342.23 2071.45 1007.26C2066.02 675.502 1778.9 394.525 1447.96 394.525V394.509Z" fill="#7A5DFE"/>
<path d="M1447.56 396.066C1527.05 396.066 1605.77 412.746 1681.52 445.637C1754.42 477.298 1820.84 522.227 1878.93 579.211C1937.07 636.241 1983.26 701.79 2016.23 774.035C2050.52 849.209 2068.57 927.684 2069.88 1007.28C2071.19 1086.95 2058.71 1159.37 2032.83 1222.52C2008.52 1281.81 1971.56 1334.88 1922.99 1380.28C1836.06 1461.53 1710.96 1521.08 1540.55 1562.35C1488.63 1574.92 1436.32 1581.3 1385.08 1581.3C1299.77 1581.3 1218.33 1564.06 1143.05 1530.07C1106.98 1513.78 1072.68 1493.67 1041.09 1470.33C1009.79 1447.18 980.963 1420.71 955.438 1391.65C905.478 1334.78 868.834 1269.52 846.548 1197.71C823.359 1123.01 816.865 1044.61 827.253 964.702C840.257 864.595 864.364 776.776 898.875 703.674C932.031 633.453 975.871 574.632 1029.15 528.799C1080.09 484.975 1141.35 451.633 1211.22 429.674C1277.61 408.805 1354.06 397.53 1438.42 396.144C1441.46 396.097 1444.54 396.066 1447.58 396.066M1447.56 394.509C1444.51 394.509 1441.46 394.54 1438.39 394.587C1107.93 399.991 879.035 553.935 825.695 964.484C782.136 1299.72 1041.62 1582.86 1385.08 1582.86C1435.46 1582.86 1487.6 1576.77 1540.91 1563.86C1849.84 1489.05 2076.84 1337.7 2071.44 1007.25C2066.08 679.862 1774.32 394.509 1447.56 394.509Z" fill="#846AFE"/>
<path d="M1447.18 396.066C1525.58 396.066 1603.71 412.948 1679.43 446.26C1752.18 478.263 1818.72 523.551 1877.2 580.877C1935.73 638.25 1982.29 703.861 2015.62 775.904C2050.35 850.984 2068.6 928.82 2069.89 1007.28C2071.18 1086.72 2059.91 1154.4 2035.41 1214.19C2012.63 1269.79 1978.86 1317.25 1932.21 1359.3C1890.3 1397.07 1838 1430.3 1772.31 1460.9C1717.43 1486.48 1652.46 1510.62 1567.85 1536.9C1500.99 1557.66 1433.79 1568.19 1368.1 1568.19C1282.53 1568.19 1201.25 1550.67 1126.53 1516.13C1090.79 1499.61 1056.91 1479.22 1025.86 1455.56C995.102 1432.14 966.945 1405.35 942.152 1375.98C893.266 1318.06 858.288 1251.78 838.167 1178.95C817.237 1103.17 813.561 1024.01 827.25 943.678C845.456 836.781 871.9 749.398 908.092 676.514C942.728 606.807 985.352 552.315 1038.44 509.909C1088.15 470.212 1146.21 441.852 1215.93 423.211C1278.85 406.407 1351.63 397.53 1438.43 396.113C1441.39 396.066 1444.26 396.035 1447.2 396.035M1447.18 394.509C1444.24 394.509 1441.33 394.54 1438.39 394.587C1112.45 399.929 899.387 510.641 825.693 943.428C768.523 1279.15 1021.93 1569.75 1368.09 1569.75C1432.13 1569.75 1499.28 1559.81 1568.28 1538.38C1865.27 1446.14 2076.76 1333.19 2071.43 1007.25C2066.15 684.254 1769.73 394.509 1447.18 394.509Z" fill="#8F77FE"/>
<path d="M1446.83 396.067C1524.12 396.067 1601.67 413.151 1677.35 446.868C1748.92 478.747 1817.43 525.654 1875.46 582.513C1933.55 639.418 1981.79 706.93 2014.99 777.758C2050.14 852.744 2068.61 929.958 2069.88 1007.28C2071.15 1085.41 2060.73 1150.45 2038.01 1206.12C2017.08 1257.42 1985.53 1300.9 1941.55 1339.04C1903.11 1372.39 1855.12 1401.99 1790.52 1432.25C1730.33 1460.44 1661.58 1486.38 1595.12 1511.46C1513.98 1542.07 1432.58 1557.6 1353.17 1557.6C1267.5 1557.6 1186.44 1539.79 1112.24 1504.67C1076.82 1487.89 1043.35 1467.23 1012.73 1443.24C982.455 1419.51 954.859 1392.43 930.673 1362.73C906.971 1333.61 886.445 1301.82 869.703 1268.29C852.759 1234.37 839.568 1198.43 830.489 1161.5C811.489 1084.18 810.384 1003.84 827.203 922.701C850.47 810.509 879.966 721.117 917.389 649.432C952.99 581.236 995.646 529.438 1047.79 491.096C1095.43 456.072 1151.97 431.761 1220.64 416.811C1279.4 404.025 1346.55 397.64 1438.4 396.145C1441.24 396.098 1443.98 396.082 1446.81 396.082M1446.83 394.51C1444.01 394.51 1441.22 394.525 1438.39 394.572C1116.95 399.836 920.021 467.378 825.677 922.358C755.767 1259.51 1004.2 1559.14 1353.17 1559.14C1429.93 1559.14 1511.49 1544.66 1595.66 1512.89C1881.14 1405.15 2076.68 1328.66 2071.43 1007.23C2066.22 688.631 1765.13 394.494 1446.81 394.494L1446.83 394.51Z" fill="#9A84FE"/>
<path d="M1446.47 396.082C1595.91 396.082 1751.63 464.636 1873.71 584.179C1995.93 703.845 2067.43 858.054 2069.87 1007.28C2071.01 1076.85 2063.36 1134.31 2046.48 1182.93C2030.83 1228.03 2006.94 1266.05 1973.46 1299.14C1909.45 1362.42 1817.74 1401.79 1701.64 1451.62C1676.16 1462.56 1649.81 1473.88 1622.41 1486.02C1527.77 1528 1432.9 1549.28 1340.46 1549.28C1254.74 1549.28 1173.87 1531.14 1100.06 1495.37C1064.9 1478.32 1031.73 1457.32 1001.47 1432.95C971.582 1408.87 944.407 1381.4 920.719 1351.31C897.172 1321.41 876.973 1288.8 860.699 1254.38C844.222 1219.58 831.67 1182.76 823.4 1144.98C806.052 1065.76 807.329 983.904 827.185 901.691C882.05 674.52 953.019 542.099 1057.27 472.283C1103.35 441.416 1156.78 421.762 1225.41 410.394C1285.53 400.442 1351.48 397.561 1438.41 396.144C1441.12 396.097 1443.76 396.082 1446.48 396.082M1446.47 394.524C1443.76 394.524 1441.09 394.54 1438.38 394.587C1121.46 399.773 940.903 424.223 825.674 901.317C743.695 1240.71 988.526 1550.83 1340.46 1550.83C1429.05 1550.83 1524.38 1531.2 1623.05 1487.43C1897.63 1365.64 2076.63 1324.17 2071.45 1007.25C2066.31 693.037 1760.57 394.524 1446.48 394.524H1446.47Z" fill="#A592FF"/>
<path d="M1446.14 396.082C1521.23 396.082 1597.64 413.586 1673.2 448.113C1744.46 480.677 1813.21 528.285 1872 585.829C1930.83 643.405 1979.86 711.071 2013.78 781.495C2049.78 856.279 2068.66 932.246 2069.89 1007.28C2071.88 1128.66 2049.02 1208.97 1995.79 1267.68C1945.74 1322.91 1871.81 1356.67 1778.21 1399.44C1739.57 1417.08 1695.78 1437.09 1649.73 1460.58C1542.46 1515.26 1434.91 1542.98 1330.07 1542.98C1244.26 1542.98 1163.43 1524.46 1089.85 1487.92C1054.82 1470.54 1021.85 1449.15 991.843 1424.34C962.207 1399.84 935.343 1371.92 912.013 1341.35C813.418 1212.21 782.504 1044.31 827.2 880.683C859.375 762.869 893.543 672.262 931.652 603.645C967.564 539 1008.01 492.279 1055.31 460.79C1097.2 432.913 1145.85 415.735 1208.39 406.734C1265.58 398.511 1328.57 397.655 1401.52 396.674C1413.59 396.502 1425.89 396.346 1438.44 396.144C1441.05 396.097 1443.57 396.082 1446.17 396.082M1446.14 394.524C1443.54 394.524 1440.98 394.54 1438.38 394.587C1125.98 399.695 962.004 381.131 825.658 880.278C732.139 1222.68 974.915 1544.53 1330.05 1544.53C1429.66 1544.53 1538.07 1519.24 1650.43 1461.96C1914.82 1327.19 2076.55 1319.67 2071.45 1007.26C2066.37 697.445 1755.99 394.54 1446.14 394.54V394.524Z" fill="#B09FFF"/>
<path d="M1445.81 396.082C1519.82 396.082 1595.63 413.789 1671.13 448.72C1742.24 481.611 1811.09 529.593 1870.25 587.465C1929.46 645.382 1978.88 713.112 2013.14 783.348C2049.58 858.023 2068.66 933.368 2069.87 1007.28C2070.82 1065.46 2066.48 1112.51 2056.57 1151.13C2047.26 1187.5 2032.71 1217.32 2012.11 1242.35C1972.37 1290.61 1911.83 1318.91 1835.21 1354.74C1788.63 1376.53 1735.84 1401.21 1677.01 1435.13C1616.43 1470.06 1554.78 1496.54 1493.76 1513.82C1435.97 1530.19 1378.17 1538.49 1321.99 1538.49C1235.96 1538.49 1155.01 1519.52 1081.36 1482.1C1046.37 1464.32 1013.46 1442.45 983.557 1417.11C954.045 1392.1 927.352 1363.62 904.226 1332.47C880.632 1300.68 860.698 1266.05 845 1229.56C829.115 1192.62 817.528 1153.7 810.551 1113.86C803.418 1073.08 801.098 1031.17 803.668 989.277C806.315 945.982 814.211 902.392 827.121 859.689C890.786 649.229 954.513 526.868 1033.74 462.97C1069.04 434.502 1108.1 416.639 1156.64 406.765C1200.08 397.935 1247.84 396.128 1306.16 396.128C1319.52 396.128 1333.03 396.222 1347.32 396.315C1362.16 396.409 1377.5 396.502 1393.25 396.502C1408.99 396.502 1424.46 396.393 1438.37 396.16C1440.84 396.113 1443.27 396.097 1445.76 396.097M1445.81 394.524C1443.33 394.524 1440.87 394.54 1438.38 394.587C1422.98 394.836 1407.92 394.929 1393.3 394.929C1362.65 394.929 1333.7 394.556 1306.21 394.556C1084.61 394.556 958.873 418.835 825.657 859.222C720.972 1205.28 963.343 1540.05 1322 1540.05C1431.9 1540.05 1552.69 1508.64 1677.81 1436.49C1932.78 1289.44 2076.47 1315.15 2071.43 1007.26C2066.43 701.852 1751.39 394.54 1445.79 394.54L1445.81 394.524Z" fill="#BBACFF"/>
<path d="M1230.13 389.572V391.13C1255.53 391.13 1282.48 392.267 1310.99 393.466C1344.18 394.867 1378.49 396.316 1416.08 396.316C1423.62 396.316 1431.13 396.253 1438.4 396.129C1440.73 396.098 1443.13 396.067 1445.48 396.067C1518.38 396.067 1593.6 413.992 1669.06 449.328C1739.99 482.562 1808.97 530.902 1868.52 589.1C1928.11 647.361 1977.91 715.168 2012.53 785.186C2049.39 859.752 2068.69 934.458 2069.87 1007.25C2070.76 1061.41 2067.49 1104.68 2059.89 1139.5C2052.66 1172.58 2041.23 1199.22 2024.93 1220.98C1993.33 1263.12 1946.02 1285.11 1880.55 1315.53C1832.38 1337.91 1772.42 1365.77 1704.35 1409.65C1638.25 1452.26 1570.79 1484.56 1503.79 1505.63C1440.72 1525.47 1377.63 1535.53 1316.29 1535.53C1147.14 1535.53 994.46 1458.55 897.374 1324.31C849.548 1258.17 817.498 1180.19 804.712 1098.81C798.109 1056.82 796.551 1013.79 800.055 970.916C803.684 926.547 812.795 882.022 827.122 838.588C859.718 739.743 890.849 661.751 922.292 600.142C952.38 541.196 982.904 497.014 1015.62 465.073C1045.45 435.966 1078.06 416.281 1115.29 404.897C1146.6 395.335 1182.01 391.067 1230.12 391.067V389.51M1230.13 389.588C1062.76 389.588 957.441 438.598 825.658 838.167C710.118 1188.49 953.704 1537.14 1316.3 1537.14C1435.88 1537.14 1568.34 1499.25 1705.2 1410.99C1951.54 1252.14 2076.41 1310.62 2071.45 1007.25C2066.52 706.244 1746.83 394.525 1445.5 394.525C1443.13 394.525 1440.77 394.54 1438.38 394.587C1430.84 394.712 1423.42 394.774 1416.1 394.774C1345.53 394.774 1284.55 389.588 1230.13 389.588Z" fill="#C5B9FF"/>
<path d="M1190.72 382.44C1220.29 382.44 1252.34 385.352 1286.28 388.436C1326.77 392.111 1372.66 396.285 1423.36 396.285C1428.39 396.285 1433.45 396.238 1438.41 396.16C1440.69 396.129 1442.92 396.098 1445.2 396.098C1481.38 396.098 1518.93 400.848 1556.82 410.223C1593.36 419.256 1630.44 432.633 1667.02 449.982C1737.8 483.559 1806.88 532.257 1866.81 590.798C1926.78 649.401 1976.96 717.27 2011.94 787.102C2030.04 823.232 2044.13 859.924 2053.83 896.194C2063.91 933.804 2069.31 971.181 2069.9 1007.3C2071.52 1106.13 2061.23 1164.49 2035.47 1202.49C2010.6 1239.19 1971.87 1256.55 1918.25 1280.6C1868.63 1302.85 1806.87 1330.55 1731.69 1384.27C1660.6 1435.07 1587.75 1473.57 1515.16 1498.67C1447.2 1522.19 1379.14 1534.1 1312.91 1534.1C1269.13 1534.1 1225.96 1528.85 1184.58 1518.51C1144.62 1508.53 1106.01 1493.72 1069.82 1474.49C999.865 1437.31 938.349 1382.96 891.925 1317.32C843.476 1248.81 811.534 1168.26 799.543 1084.43C793.36 1041.14 792.426 996.908 796.771 952.96C801.271 907.407 811.488 861.886 827.123 817.642C891.567 637.222 949.204 523.333 1008.52 459.217C1035.67 429.861 1064.15 409.74 1095.6 397.686C1122.72 387.283 1152.95 382.44 1190.73 382.44M1190.72 380.883C1054.39 380.883 959.81 441.557 825.644 817.112C700.106 1172.39 946.183 1535.66 1312.88 1535.66C1441.56 1535.66 1585.01 1490.98 1732.57 1385.53C1971.08 1215.09 2076.32 1306.12 2071.43 1007.26C2066.57 710.683 1742.22 394.54 1445.19 394.54C1442.9 394.54 1440.66 394.556 1438.38 394.603C1433.34 394.681 1428.31 394.727 1423.36 394.727C1330.38 394.727 1255.8 380.898 1190.72 380.898V380.883Z" fill="#D0C6FF"/>
<path d="M1166.28 370.557C1197.94 370.557 1232.47 375.806 1269.02 381.35C1314.96 388.327 1367.03 396.222 1427.19 396.222C1430.92 396.222 1434.69 396.191 1438.4 396.129C1440.55 396.098 1442.73 396.082 1444.89 396.082C1480.53 396.082 1517.67 400.894 1555.29 410.379C1591.55 419.52 1628.44 433.038 1664.95 450.574C1735.57 484.493 1804.77 533.534 1865.07 592.433C1925.41 651.363 1975.98 719.326 2011.3 788.955C2029.58 824.992 2043.83 861.497 2053.65 897.44C2063.83 934.77 2069.3 971.726 2069.87 1007.26C2071.42 1101.52 2064.02 1153.28 2044.35 1185.97C2025.22 1217.74 1993.91 1230.82 1950.58 1248.92C1903.89 1268.42 1839.95 1295.13 1758.98 1358.81C1683.49 1418.16 1605.74 1463.13 1527.85 1492.47C1455.31 1519.8 1382.55 1533.66 1311.58 1533.66C1267.31 1533.66 1223.59 1528.23 1181.67 1517.5C1141.21 1507.14 1102.1 1491.79 1065.46 1471.87C994.601 1433.36 932.447 1377.21 885.726 1309.53C836.716 1238.55 804.978 1155.49 793.92 1069.37C788.205 1024.85 787.971 979.497 793.22 934.583C798.67 887.956 810.07 841.547 827.092 796.617C962.877 438.458 1051.05 370.557 1166.28 370.557ZM1166.28 369C1050.45 369 961.678 437.212 825.644 796.057C689.017 1156.44 939.782 1535.22 1311.6 1535.22C1449 1535.22 1602.92 1483.52 1759.95 1360.04C1991.37 1178.06 2076.26 1301.6 2071.43 1007.25C2066.65 715.074 1737.64 394.525 1444.89 394.525C1442.71 394.525 1440.55 394.541 1438.37 394.572C1434.61 394.634 1430.86 394.665 1427.17 394.665C1318.56 394.665 1237.33 369 1166.27 369H1166.28Z" fill="#DBD3FF"/>
<path d="M1448.59 396.051C1532.48 396.051 1613.85 412.481 1690.46 444.89C1764.45 476.193 1830.9 520.998 1887.98 578.059C1945.05 635.12 1989.84 701.572 2021.15 775.578C2053.55 852.184 2069.97 933.555 2069.97 1017.45C2069.97 1101.34 2053.54 1182.72 2021.15 1259.32C1989.84 1333.31 1945.04 1399.76 1887.98 1456.84C1830.92 1513.92 1764.46 1558.71 1690.46 1590.01C1613.85 1622.42 1532.48 1638.83 1448.59 1638.83C1364.69 1638.83 1283.32 1622.4 1206.71 1590.01C1132.72 1558.71 1066.27 1513.9 1009.2 1456.84C952.119 1399.78 907.329 1333.33 876.026 1259.32C843.618 1182.72 827.188 1101.34 827.188 1017.45C827.188 933.555 843.618 852.184 876.026 775.578C907.329 701.588 952.134 635.136 1009.2 578.059C1066.26 520.982 1132.71 476.193 1206.71 444.89C1283.32 412.481 1364.69 396.051 1448.59 396.051ZM1448.59 394.494C1104.55 394.494 825.646 673.4 825.646 1017.43C825.646 1361.47 1104.55 1640.37 1448.59 1640.37C1792.62 1640.37 2071.53 1361.47 2071.53 1017.43C2071.53 673.4 1792.62 394.494 1448.59 394.494Z" fill="#271968"/>
<path d="M1448.13 396.051H1448.59C1530.43 396.114 1609.27 412.481 1682.95 444.734C1752.88 475.336 1816.26 519.3 1871.36 575.411C1925.1 630.152 1968.76 694.128 2001.12 765.595C2033.76 837.685 2053.4 914.088 2059.49 992.719C2071.25 1144.56 2011.79 1303.35 1896.36 1428.39C1776.92 1557.77 1614.97 1632.21 1452.03 1632.63C1451.19 1632.63 1450.39 1632.63 1449.55 1632.63C1280.5 1632.63 1123.13 1568.39 1006.42 1451.73C950.001 1395.34 905.772 1329.51 874.952 1256.1C843.26 1180.6 827.188 1100.3 827.188 1017.43C827.188 934.568 843.82 851 876.603 774.083C908.139 700.124 953.255 633.719 1010.72 576.735C1067.89 520.016 1134.38 475.492 1208.3 444.391C1284.54 412.31 1365.22 396.051 1448.12 396.051M1448.13 394.494C1108.8 394.494 825.646 669.88 825.646 1017.43C825.646 1364.99 1096.87 1634.19 1449.57 1634.19C1450.41 1634.19 1451.2 1634.19 1452.04 1634.19C1792.71 1633.3 2085.95 1314.05 2061.05 992.594C2036.41 674.443 1786.97 394.743 1448.57 394.51C1448.43 394.51 1448.26 394.51 1448.12 394.51L1448.13 394.494Z" fill="#6F50FE"/>
<path d="M1447.68 396.051H1448.59C1603.2 396.269 1743.7 457.458 1854.95 573.029C1905.25 625.278 1947.76 686.809 1981.32 755.908C2013.95 823.061 2036.74 894.419 2049.05 968.004C2054.96 1003.22 2055.98 1040.19 2052.14 1077.86C2048.42 1114.24 2040.15 1151.49 2027.52 1188.57C2003.02 1260.54 1962 1331.93 1908.89 1395C1851.36 1463.32 1780.88 1520.63 1705.07 1560.72C1665.62 1581.58 1624.83 1597.75 1583.86 1608.78C1541.11 1620.27 1497.92 1626.22 1455.5 1626.44C1453.79 1626.44 1452.14 1626.45 1450.42 1626.45C1362.67 1626.45 1278.76 1610.16 1201.01 1578.05C1126.54 1547.28 1060.15 1503.08 1003.68 1446.64C947.914 1390.9 904.246 1325.71 873.908 1252.89C842.917 1178.48 827.203 1099.26 827.203 1017.42C827.203 935.58 844.023 849.801 877.21 772.588C908.98 698.66 954.423 632.317 1012.26 575.396C1069.54 519.035 1136.04 474.791 1209.91 443.862C1285.77 412.108 1365.75 396.02 1447.68 396.02M1447.68 394.494C1113.04 394.494 825.646 666.376 825.646 1017.43C825.646 1368.49 1089.24 1628.02 1450.42 1628.02C1452.14 1628.02 1453.8 1628.02 1455.5 1628.01C1792.82 1626.23 2100.73 1267.42 2050.58 967.739C2001.77 676.141 1781.33 394.961 1448.59 394.494C1448.31 394.494 1447.96 394.494 1447.68 394.494Z" fill="#7A5DFE"/>
<path d="M1447.23 396.051H1448.59C1526.34 396.223 1600.24 412.59 1668.2 444.703C1730.08 473.95 1787.48 516.388 1838.83 570.864C1885.49 620.372 1926.88 679.458 1961.87 746.471C1993.89 807.799 2019.71 874.033 2038.64 943.304C2047.22 974.716 2050.88 1008.54 2049.54 1043.83C2048.24 1077.78 2042.34 1113.24 2031.95 1149.23C2011.91 1218.77 1975.16 1290.05 1925.68 1355.36C1867.9 1431.66 1795.7 1496.58 1716.9 1543.15C1675.85 1567.4 1633.57 1586.27 1591.26 1599.23C1546.81 1612.84 1502.3 1619.93 1458.96 1620.27C1456.34 1620.3 1453.77 1620.32 1451.17 1620.32C1361.55 1620.32 1276.41 1604.1 1198.15 1572.15C1123.46 1541.64 1057.1 1497.72 1000.96 1441.64C945.827 1386.56 902.735 1322.01 872.865 1249.76C842.575 1176.46 827.203 1098.29 827.203 1017.47C827.203 931.546 844.225 848.68 877.802 771.17C909.805 697.274 955.576 630.978 1013.81 574.15C1071.18 518.148 1137.71 474.168 1211.53 443.426C1287 411.999 1366.31 396.067 1447.25 396.067M1447.23 394.494C1117.28 394.494 825.646 662.888 825.646 1017.43C825.646 1345.61 1081.67 1621.86 1451.17 1621.86C1453.79 1621.86 1456.36 1621.86 1458.97 1621.81C1792.93 1619.15 2116.19 1221.62 2040.11 942.884C1967.95 678.461 1775.69 395.195 1448.59 394.494C1448.15 394.494 1447.68 394.494 1447.23 394.494Z" fill="#846AFE"/>
<path d="M1446.78 396.051H1448.57C1524.33 396.269 1595.81 412.668 1661.02 444.796C1718.99 473.358 1773.52 515.111 1823.11 568.886C1900.95 653.31 1968.02 767.698 2028.18 918.605C2039.15 946.108 2045.34 976.476 2046.61 1008.84C2047.8 1039.88 2044.49 1072.97 2036.73 1107.15C2021.84 1172.76 1990.52 1242.44 1946.16 1308.64C1918.2 1350.36 1885.72 1389.89 1849.63 1426.11C1812.83 1463.04 1773.2 1495.59 1731.82 1522.87C1642.77 1581.58 1549.61 1613.12 1462.41 1614.06C1458.83 1614.1 1455.36 1614.13 1451.79 1614.13C1360.34 1614.13 1274.02 1598 1195.25 1566.18C1120.34 1535.92 1054.06 1492.32 998.228 1436.56C943.736 1382.13 901.205 1318.21 871.833 1246.55C842.228 1174.34 827.215 1097.25 827.215 1017.42C827.215 848.166 894.026 690.266 1015.33 572.811C1072.81 517.167 1139.36 473.452 1213.11 442.912C1288.21 411.812 1366.84 396.036 1446.79 396.036M1446.78 394.494C1121.49 394.494 825.627 659.415 825.627 1017.43C825.627 1340.38 1074.18 1615.71 1451.78 1615.71C1455.34 1615.71 1458.85 1615.67 1462.43 1615.63C1793.02 1612.08 2132.66 1176.5 2029.63 918.044C1935.25 681.296 1770.02 395.428 1448.57 394.494C1447.98 394.494 1447.37 394.494 1446.78 394.494Z" fill="#8F77FE"/>
<path d="M1446.34 396.051C1447.09 396.051 1447.84 396.051 1448.59 396.051C1580.96 396.55 1693.79 447.35 1793.51 551.397C1879.99 641.614 1943.23 757.466 1999.05 859.675C2005.53 871.542 2011.65 882.739 2017.81 893.952C2043.51 940.595 2051.42 997.469 2041.31 1063C2032 1123.43 2006.96 1189.93 1968.91 1255.32C1914.34 1349.13 1836.35 1435.96 1749.33 1499.79C1654.59 1569.28 1556.59 1606.67 1465.89 1607.89C1461.37 1607.97 1456.79 1608 1452.31 1608C1359.07 1608 1271.59 1591.94 1192.32 1560.26C1117.23 1530.27 1051.01 1486.96 995.506 1431.53C941.653 1377.76 899.698 1314.45 870.794 1243.41C841.874 1172.28 827.219 1096.25 827.219 1017.42C827.219 847.325 894.559 688.958 1016.86 571.502C1074.43 516.201 1140.99 472.766 1214.7 442.414C1289.43 411.64 1367.37 396.036 1446.36 396.036M1446.34 394.494C1125.72 394.494 825.646 655.942 825.646 1017.43C825.646 1335.18 1066.74 1609.55 1452.29 1609.55C1456.81 1609.55 1461.34 1609.52 1465.9 1609.45C1793.13 1605.02 2150.55 1131.7 2019.18 893.189C1904.08 684.239 1764.4 395.662 1448.6 394.494C1447.85 394.494 1447.11 394.494 1446.36 394.494H1446.34Z" fill="#9A84FE"/>
<path d="M1445.89 396.051C1446.78 396.051 1447.68 396.051 1448.57 396.051C1699.1 397.188 1822.62 588.291 1931.6 756.889C1957.5 796.96 1981.96 834.819 2007.44 869.268C2036.46 908.498 2049.07 958.488 2044.96 1017.84C2041.17 1072.3 2022.75 1134.36 1991.65 1197.31C1966.69 1247.84 1934.54 1297.66 1896.12 1345.37C1857.39 1393.44 1814.38 1436.78 1768.26 1474.16C1720.16 1513.15 1670.79 1543.91 1621.51 1565.59C1568.89 1588.75 1517.69 1600.88 1469.35 1601.67C1463.72 1601.78 1458.29 1601.83 1452.7 1601.83C1357.73 1601.83 1269.13 1585.85 1189.38 1554.33C1114.1 1524.59 1047.96 1481.57 992.797 1426.5C939.566 1373.37 898.188 1310.7 869.766 1240.24C841.531 1170.21 827.203 1095.24 827.203 1017.4C827.203 929.444 844.817 845.098 879.546 766.732C912.266 692.913 958.955 626.788 1018.35 570.194C1076.02 515.251 1142.61 472.081 1216.26 441.915C1290.61 411.469 1367.87 396.02 1445.89 396.02M1445.89 394.494C1129.89 394.494 825.646 652.469 825.646 1017.43C825.646 1329.98 1059.4 1603.42 1452.68 1603.42C1458.23 1603.42 1463.75 1603.37 1469.36 1603.26C1793.23 1597.95 2170.06 1086.55 2008.7 868.349C1874.44 686.793 1758.75 395.896 1448.59 394.494C1447.7 394.494 1446.8 394.494 1445.89 394.494Z" fill="#A592FF"/>
<path d="M1445.46 396.051C1446.48 396.051 1447.54 396.051 1448.57 396.051C1501.51 396.332 1549.35 405.193 1594.84 423.118C1635.13 439.003 1672.47 461.631 1709.02 492.296C1776.7 549.108 1829.42 623.689 1880.39 695.826C1919.08 750.567 1955.61 802.271 1997.12 844.584C2028.9 877.008 2045.77 920.271 2047.23 973.174C2048.59 1022.26 2036.8 1077.69 2012.18 1137.93C1990.37 1191.3 1958.39 1247.6 1919.67 1300.75C1881.03 1353.81 1835.23 1404.36 1787.23 1446.95C1681.36 1540.88 1569.7 1593.64 1472.77 1595.51C1466.08 1595.66 1459.58 1595.73 1452.95 1595.73C1356.27 1595.73 1266.59 1579.82 1186.38 1548.46C1110.92 1518.95 1044.87 1476.25 990.056 1421.52C885.028 1316.66 827.172 1173.15 827.172 1017.42C827.172 928.774 844.973 843.945 880.091 765.284C913.029 691.481 960.045 625.418 1019.82 568.917C1136.04 459.046 1291.17 396.036 1445.42 396.036M1445.46 394.494C1134.06 394.494 825.646 648.996 825.646 1017.45C825.646 1324.84 1052.1 1597.31 1452.96 1597.31C1459.55 1597.31 1466.14 1597.24 1472.83 1597.1C1793.34 1590.9 2191.18 1040.28 1998.24 843.525C1846.15 688.428 1753.1 396.16 1448.59 394.525C1447.56 394.525 1446.48 394.525 1445.46 394.525V394.494Z" fill="#B09FFF"/>
<path d="M1445 396.051C1446.18 396.051 1447.38 396.051 1448.57 396.051C1647.99 397.297 1745.24 527.819 1839.31 654.042C1886.35 717.193 1930.8 776.824 1986.8 819.884C2021.05 846.204 2041.64 883.284 2048.01 930.098C2053.89 973.47 2047.54 1023.98 2029.13 1080.21C1992.14 1193.17 1908.34 1319.87 1804.98 1419.17C1751.92 1470.14 1697.28 1510.83 1642.55 1540.13C1583.71 1571.62 1527.76 1588.17 1476.24 1589.32C1468.53 1589.51 1460.75 1589.6 1453.11 1589.6C1261.84 1589.6 1100.79 1529.76 987.373 1416.54C884.074 1313.42 827.184 1171.67 827.184 1017.42C827.184 928.105 845.187 842.777 880.679 763.835C913.851 690.048 961.179 624.032 1021.32 567.625C1137.61 458.579 1292.02 396.036 1444.99 396.036M1445 394.494C1138.2 394.494 825.627 645.555 825.627 1017.45C825.627 1319.72 1044.84 1591.19 1453.11 1591.19C1460.78 1591.19 1468.47 1591.1 1476.27 1590.91C1793.41 1583.83 2213.41 992.143 1987.74 818.67C1818.61 688.662 1747.42 396.378 1448.57 394.51C1447.38 394.51 1446.18 394.51 1445 394.51V394.494Z" fill="#BBACFF"/>
<path d="M1444.56 396.051C1445.89 396.051 1447.23 396.051 1448.57 396.051C1492.45 396.363 1531.93 402.997 1569.23 416.344C1602.4 428.195 1633.05 445.108 1662.92 468.017C1718.42 510.595 1762.25 567.562 1804.64 622.646C1857.08 690.811 1906.61 755.176 1976.51 795.154C2013.09 816.069 2036.97 847.683 2047.49 889.109C2057.24 927.482 2055.47 973.548 2042.23 1026.05C1982.08 1264.59 1698.49 1577.6 1479.7 1583.16C1470.84 1583.39 1461.91 1583.52 1453.18 1583.52C1259.36 1583.52 1097.37 1524.06 984.695 1411.58C883.124 1310.2 827.184 1170.23 827.184 1017.43C827.184 927.435 845.374 841.625 881.255 762.403C914.66 688.631 962.284 622.677 1022.82 566.348C1139.14 458.112 1292.86 396.036 1444.55 396.036M1444.56 394.494C1142.35 394.494 825.627 642.113 825.627 1017.45C825.627 1314.59 1037.68 1585.09 1453.18 1585.09C1461.96 1585.09 1470.77 1584.96 1479.75 1584.73C1793.52 1576.76 2236.07 941.809 1977.29 793.83C1791.2 687.432 1741.8 396.628 1448.58 394.525C1447.24 394.525 1445.9 394.525 1444.58 394.525L1444.56 394.494Z" fill="#C5B9FF"/>
<path d="M1444.13 396.036C1445.61 396.036 1447.09 396.036 1448.57 396.052C1489.17 396.379 1525.55 402.281 1559.76 414.086C1590.21 424.598 1618.22 439.564 1645.42 459.872C1695.97 497.606 1735.73 548.392 1774.16 597.495C1800.79 631.523 1828.34 666.704 1859.05 696.916C1893.53 730.835 1928.59 754.865 1966.21 770.408C2061.14 809.622 2065.26 903.857 2052.02 976.009C2041.31 1034.36 2014.9 1101.86 1975.64 1171.19C1937.61 1238.34 1888.69 1305.39 1834.15 1365.05C1778.02 1426.46 1717.57 1478.16 1659.32 1514.57C1595.52 1554.46 1536.25 1575.45 1483.17 1576.96C1473.13 1577.26 1463.02 1577.41 1453.15 1577.41C1351.64 1577.41 1258.85 1561.74 1177.39 1530.85C1101.5 1502.07 1035.78 1460.27 982.031 1406.62C882.19 1306.95 827.2 1168.73 827.2 1017.43C827.2 926.75 845.576 840.457 881.847 760.954C915.486 687.198 963.421 621.291 1024.33 565.071C1082.34 511.514 1149.03 469.434 1222.5 440C1294.31 411.236 1370.95 396.036 1444.14 396.036M1444.13 394.479C1146.47 394.479 825.627 638.671 825.627 1017.43C825.627 1309.48 1030.57 1578.97 1453.11 1578.97C1463.03 1578.97 1473.03 1578.83 1483.19 1578.52C1793.6 1569.66 2258.36 889.389 1966.79 768.959C1763.2 684.862 1736.13 396.846 1448.55 394.494C1447.07 394.494 1445.59 394.479 1444.11 394.479H1444.13Z" fill="#D0C6FF"/>
<path d="M1443.69 396.036C1445.31 396.036 1446.95 396.036 1448.55 396.052C1486.33 396.394 1520.02 401.689 1551.51 412.248C1579.56 421.639 1605.22 435.017 1629.98 453.16C1676.05 486.892 1711.9 532.46 1746.55 576.517C1773.85 611.231 1802.09 647.112 1835.19 677.076C1872.38 710.745 1911.86 733.171 1955.91 745.615C1997.25 757.295 2026.89 780.001 2044 813.11C2059.84 843.728 2064.97 883.02 2059.22 929.88C2052.04 988.546 2027.61 1058.49 1988.55 1132.16C1951.01 1202.98 1901.51 1274.66 1845.36 1339.49C1787.79 1405.96 1725.73 1462.23 1665.88 1502.18C1634.23 1523.29 1603.29 1539.83 1573.9 1551.31C1543 1563.38 1513.63 1569.92 1486.58 1570.79C1475.31 1571.15 1463.98 1571.34 1452.94 1571.34C1349.89 1571.34 1256.14 1555.75 1174.29 1525.01C1098.29 1496.46 1032.69 1454.97 979.322 1401.7C929.237 1351.69 890.662 1292.17 864.685 1224.76C839.783 1160.18 827.168 1090.43 827.168 1017.47C827.168 926.096 845.748 839.32 882.377 759.537C916.233 685.797 964.48 619.952 1025.78 563.809C1083.06 511.342 1151.61 468.375 1224.01 439.548C1295.45 411.096 1371.4 396.067 1443.68 396.067M1443.69 394.479C1150.57 394.479 825.627 635.245 825.627 1017.43C825.627 1304.42 1023.49 1572.86 1452.97 1572.86C1464.05 1572.86 1475.28 1572.69 1486.68 1572.32C1793.72 1562.57 2279.74 835.489 1956.34 744.104C1734.37 681.374 1730.49 397.064 1448.58 394.494C1446.96 394.494 1445.33 394.479 1443.71 394.479H1443.69Z" fill="#DBD3FF"/>
</svg>
