<svg width="857" height="1169" viewBox="0 0 857 1169" fill="none" xmlns="http://www.w3.org/2000/svg">
<rect opacity="0.8" x="852.895" y="844.395" width="844.394" height="844.394" rx="422.197" transform="rotate(-180 852.895 844.395)" fill="url(#paint0_radial_2029_11359)"/>
<path d="M854.5 749.5C854.5 979.527 668.027 1166 438 1166L419 1166C188.973 1166 2.49996 979.527 2.49998 749.5C2.5 519.473 188.973 333 419 333L438 333C668.027 333 854.5 519.473 854.5 749.5Z" fill="url(#paint1_radial_2029_11359)" stroke="#BBBABD" stroke-width="5" stroke-dasharray="12 8"/>
<path fill-rule="evenodd" clip-rule="evenodd" d="M804.694 582.977C737.237 722.754 594.16 819.191 428.559 819.191C263.244 819.191 120.375 723.086 52.7734 583.699C120.231 443.027 263.308 345 428.908 345C594.224 345 737.094 442.691 804.694 582.977Z" fill="#5B3CEE"/>
<rect x="311.695" y="473.801" width="238" height="238" rx="119" fill="black"/>
<rect x="311.695" y="473.801" width="238" height="238" rx="119" stroke="black" stroke-width="5"/>
<circle cx="431.006" cy="590.659" r="203.19" stroke="#3919CF" stroke-width="6" stroke-dasharray="12 8"/>
<path d="M268.74 554V530.96H278.26C278.484 530.96 278.772 530.971 279.124 530.992C279.476 531.003 279.801 531.035 280.1 531.088C281.433 531.291 282.532 531.733 283.396 532.416C284.271 533.099 284.916 533.963 285.332 535.008C285.759 536.043 285.972 537.195 285.972 538.464C285.972 539.723 285.759 540.875 285.332 541.92C284.905 542.955 284.255 543.813 283.38 544.496C282.516 545.179 281.423 545.621 280.1 545.824C279.801 545.867 279.471 545.899 279.108 545.92C278.756 545.941 278.473 545.952 278.26 545.952H272.596V554H268.74ZM272.596 542.352H278.1C278.313 542.352 278.553 542.341 278.82 542.32C279.087 542.299 279.332 542.256 279.556 542.192C280.196 542.032 280.697 541.749 281.06 541.344C281.433 540.939 281.695 540.48 281.844 539.968C282.004 539.456 282.084 538.955 282.084 538.464C282.084 537.973 282.004 537.472 281.844 536.96C281.695 536.437 281.433 535.973 281.06 535.568C280.697 535.163 280.196 534.88 279.556 534.72C279.332 534.656 279.087 534.619 278.82 534.608C278.553 534.587 278.313 534.576 278.1 534.576H272.596V542.352ZM289.178 554V530.96H298.698C298.922 530.96 299.21 530.971 299.562 530.992C299.914 531.003 300.239 531.035 300.538 531.088C301.871 531.291 302.97 531.733 303.833 532.416C304.708 533.099 305.354 533.963 305.77 535.008C306.196 536.043 306.41 537.195 306.41 538.464C306.41 540.341 305.935 541.957 304.986 543.312C304.036 544.656 302.58 545.488 300.618 545.808L298.97 545.952H293.034V554H289.178ZM302.41 554L297.866 544.624L301.786 543.76L306.778 554H302.41ZM293.034 542.352H298.538C298.751 542.352 298.991 542.341 299.258 542.32C299.524 542.299 299.77 542.256 299.994 542.192C300.634 542.032 301.135 541.749 301.498 541.344C301.871 540.939 302.132 540.48 302.282 539.968C302.442 539.456 302.522 538.955 302.522 538.464C302.522 537.973 302.442 537.472 302.282 536.96C302.132 536.437 301.871 535.973 301.498 535.568C301.135 535.163 300.634 534.88 299.994 534.72C299.77 534.656 299.524 534.619 299.258 534.608C298.991 534.587 298.751 534.576 298.538 534.576H293.034V542.352ZM310.623 554V530.96H314.479V554H310.623ZM319.271 554V530.96H322.743L330.711 547.28L338.679 530.96H342.151V554H338.551V539.232L331.479 554H329.943L322.887 539.232V554H319.271ZM345.046 554L352.31 530.96H357.958L365.222 554H361.254L354.662 533.328H355.526L349.014 554H345.046ZM349.094 549.008V545.408H361.19V549.008H349.094ZM368.115 554V530.96H377.635C377.859 530.96 378.147 530.971 378.499 530.992C378.851 531.003 379.176 531.035 379.475 531.088C380.808 531.291 381.907 531.733 382.771 532.416C383.646 533.099 384.291 533.963 384.707 535.008C385.134 536.043 385.347 537.195 385.347 538.464C385.347 540.341 384.872 541.957 383.923 543.312C382.974 544.656 381.518 545.488 379.555 545.808L377.907 545.952H371.971V554H368.115ZM381.347 554L376.803 544.624L380.723 543.76L385.715 554H381.347ZM371.971 542.352H377.475C377.688 542.352 377.928 542.341 378.195 542.32C378.462 542.299 378.707 542.256 378.931 542.192C379.571 542.032 380.072 541.749 380.435 541.344C380.808 540.939 381.07 540.48 381.219 539.968C381.379 539.456 381.459 538.955 381.459 538.464C381.459 537.973 381.379 537.472 381.219 536.96C381.07 536.437 380.808 535.973 380.435 535.568C380.072 535.163 379.571 534.88 378.931 534.72C378.707 534.656 378.462 534.619 378.195 534.608C377.928 534.587 377.688 534.576 377.475 534.576H371.971V542.352ZM394.403 554V544.56L386.562 530.96H391.059L396.355 540.144L401.635 530.96H406.131L398.307 544.56V554H394.403ZM413.49 554V530.96H423.01C423.234 530.96 423.522 530.971 423.874 530.992C424.226 531.003 424.551 531.035 424.85 531.088C426.183 531.291 427.282 531.733 428.146 532.416C429.021 533.099 429.666 533.963 430.082 535.008C430.509 536.043 430.722 537.195 430.722 538.464C430.722 540.341 430.247 541.957 429.298 543.312C428.349 544.656 426.893 545.488 424.93 545.808L423.282 545.952H417.346V554H413.49ZM426.722 554L422.178 544.624L426.098 543.76L431.09 554H426.722ZM417.346 542.352H422.85C423.063 542.352 423.303 542.341 423.57 542.32C423.837 542.299 424.082 542.256 424.306 542.192C424.946 542.032 425.447 541.749 425.81 541.344C426.183 540.939 426.445 540.48 426.594 539.968C426.754 539.456 426.834 538.955 426.834 538.464C426.834 537.973 426.754 537.472 426.594 536.96C426.445 536.437 426.183 535.973 425.81 535.568C425.447 535.163 424.946 534.88 424.306 534.72C424.082 534.656 423.837 534.619 423.57 534.608C423.303 534.587 423.063 534.576 422.85 534.576H417.346V542.352ZM434.615 554V530.96H449.495V534.576H438.471V540.256H447.575V543.872H438.471V550.384H449.495V554H434.615ZM462.265 554.48C459.961 554.48 457.988 553.979 456.345 552.976C454.703 551.963 453.439 550.555 452.553 548.752C451.679 546.949 451.241 544.859 451.241 542.48C451.241 540.101 451.679 538.011 452.553 536.208C453.439 534.405 454.703 533.003 456.345 532C457.988 530.987 459.961 530.48 462.265 530.48C464.921 530.48 467.135 531.147 468.905 532.48C470.676 533.803 471.919 535.589 472.633 537.84L468.745 538.912C468.297 537.408 467.535 536.235 466.457 535.392C465.38 534.539 463.983 534.112 462.265 534.112C460.719 534.112 459.428 534.459 458.393 535.152C457.369 535.845 456.596 536.821 456.073 538.08C455.561 539.328 455.3 540.795 455.289 542.48C455.289 544.165 455.545 545.637 456.057 546.896C456.58 548.144 457.359 549.115 458.393 549.808C459.428 550.501 460.719 550.848 462.265 550.848C463.983 550.848 465.38 550.421 466.457 549.568C467.535 548.715 468.297 547.541 468.745 546.048L472.633 547.12C471.919 549.371 470.676 551.163 468.905 552.496C467.135 553.819 464.921 554.48 462.265 554.48ZM476.466 554V530.96H480.322V554H476.466ZM485.115 554V530.96H494.635C494.859 530.96 495.147 530.971 495.499 530.992C495.851 531.003 496.176 531.035 496.475 531.088C497.808 531.291 498.907 531.733 499.771 532.416C500.646 533.099 501.291 533.963 501.707 535.008C502.134 536.043 502.347 537.195 502.347 538.464C502.347 539.723 502.134 540.875 501.707 541.92C501.28 542.955 500.63 543.813 499.755 544.496C498.891 545.179 497.798 545.621 496.475 545.824C496.176 545.867 495.846 545.899 495.483 545.92C495.131 545.941 494.848 545.952 494.635 545.952H488.971V554H485.115ZM488.971 542.352H494.475C494.688 542.352 494.928 542.341 495.195 542.32C495.462 542.299 495.707 542.256 495.931 542.192C496.571 542.032 497.072 541.749 497.435 541.344C497.808 540.939 498.07 540.48 498.219 539.968C498.379 539.456 498.459 538.955 498.459 538.464C498.459 537.973 498.379 537.472 498.219 536.96C498.07 536.437 497.808 535.973 497.435 535.568C497.072 535.163 496.571 534.88 495.931 534.72C495.707 534.656 495.462 534.619 495.195 534.608C494.928 534.587 494.688 534.576 494.475 534.576H488.971V542.352ZM505.873 554V530.96H509.729V554H505.873ZM514.521 554V530.96H529.401V534.576H518.377V540.256H527.481V543.872H518.377V550.384H529.401V554H514.521ZM533.24 554V530.96H537.144L547.832 547.2V530.96H551.736V554H547.832L537.144 537.76V554H533.24ZM561.745 554V534.576H554.289V530.96H573.057V534.576H565.601V554H561.745ZM584.143 554.48C582.458 554.48 580.938 554.187 579.583 553.6C578.239 553.013 577.13 552.176 576.255 551.088C575.391 549.989 574.842 548.688 574.607 547.184L578.607 546.576C578.948 547.941 579.647 548.997 580.703 549.744C581.77 550.491 582.996 550.864 584.383 550.864C585.204 550.864 585.978 550.736 586.703 550.48C587.428 550.224 588.015 549.851 588.463 549.36C588.922 548.869 589.151 548.267 589.151 547.552C589.151 547.232 589.098 546.939 588.991 546.672C588.884 546.395 588.724 546.149 588.511 545.936C588.308 545.723 588.042 545.531 587.711 545.36C587.391 545.179 587.018 545.024 586.591 544.896L580.639 543.136C580.127 542.987 579.572 542.789 578.975 542.544C578.388 542.288 577.828 541.941 577.295 541.504C576.772 541.056 576.34 540.491 575.999 539.808C575.668 539.115 575.503 538.261 575.503 537.248C575.503 535.765 575.876 534.523 576.623 533.52C577.38 532.507 578.394 531.749 579.663 531.248C580.943 530.747 582.362 530.501 583.919 530.512C585.498 530.523 586.906 530.795 588.143 531.328C589.38 531.851 590.415 532.613 591.247 533.616C592.079 534.619 592.666 535.829 593.007 537.248L588.863 537.968C588.692 537.157 588.362 536.469 587.871 535.904C587.391 535.328 586.799 534.891 586.095 534.592C585.402 534.293 584.66 534.133 583.871 534.112C583.103 534.101 582.388 534.219 581.727 534.464C581.076 534.699 580.548 535.04 580.143 535.488C579.748 535.936 579.551 536.459 579.551 537.056C579.551 537.621 579.722 538.085 580.063 538.448C580.404 538.8 580.826 539.083 581.327 539.296C581.839 539.499 582.356 539.669 582.879 539.808L587.007 540.96C587.572 541.109 588.207 541.312 588.911 541.568C589.615 541.824 590.292 542.181 590.943 542.64C591.594 543.099 592.127 543.701 592.543 544.448C592.97 545.195 593.183 546.144 593.183 547.296C593.183 548.491 592.932 549.541 592.431 550.448C591.94 551.344 591.274 552.091 590.431 552.688C589.588 553.285 588.623 553.733 587.535 554.032C586.458 554.331 585.327 554.48 584.143 554.48Z" fill="white"/>
<rect x="302.695" y="400" width="256" height="44" rx="2" fill="#5B3CEE"/>
<path d="M322.679 434.48C320.375 434.48 318.402 433.979 316.759 432.976C315.117 431.963 313.853 430.555 312.967 428.752C312.093 426.949 311.655 424.859 311.655 422.48C311.655 420.101 312.093 418.011 312.967 416.208C313.853 414.405 315.117 413.003 316.759 412C318.402 410.987 320.375 410.48 322.679 410.48C325.335 410.48 327.549 411.147 329.319 412.48C331.09 413.803 332.333 415.589 333.047 417.84L329.159 418.912C328.711 417.408 327.949 416.235 326.871 415.392C325.794 414.539 324.397 414.112 322.679 414.112C321.133 414.112 319.842 414.459 318.807 415.152C317.783 415.845 317.01 416.821 316.487 418.08C315.975 419.328 315.714 420.795 315.703 422.48C315.703 424.165 315.959 425.637 316.471 426.896C316.994 428.144 317.773 429.115 318.807 429.808C319.842 430.501 321.133 430.848 322.679 430.848C324.397 430.848 325.794 430.421 326.871 429.568C327.949 428.715 328.711 427.541 329.159 426.048L333.047 427.12C332.333 429.371 331.09 431.163 329.319 432.496C327.549 433.819 325.335 434.48 322.679 434.48ZM334.335 434L341.599 410.96H347.247L354.511 434H350.543L343.951 413.328H344.815L338.303 434H334.335ZM338.383 429.008V425.408H350.479V429.008H338.383ZM357.404 434V410.96H366.924C367.148 410.96 367.436 410.971 367.788 410.992C368.14 411.003 368.465 411.035 368.764 411.088C370.097 411.291 371.196 411.733 372.06 412.416C372.935 413.099 373.58 413.963 373.996 415.008C374.423 416.043 374.636 417.195 374.636 418.464C374.636 420.341 374.161 421.957 373.212 423.312C372.263 424.656 370.807 425.488 368.844 425.808L367.196 425.952H361.26V434H357.404ZM370.636 434L366.092 424.624L370.012 423.76L375.004 434H370.636ZM361.26 422.352H366.764C366.977 422.352 367.217 422.341 367.484 422.32C367.751 422.299 367.996 422.256 368.22 422.192C368.86 422.032 369.361 421.749 369.724 421.344C370.097 420.939 370.359 420.48 370.508 419.968C370.668 419.456 370.748 418.955 370.748 418.464C370.748 417.973 370.668 417.472 370.508 416.96C370.359 416.437 370.097 415.973 369.724 415.568C369.361 415.163 368.86 414.88 368.22 414.72C367.996 414.656 367.751 414.619 367.484 414.608C367.217 414.587 366.977 414.576 366.764 414.576H361.26V422.352ZM378.849 434V410.96H382.705V434H378.849ZM387.498 434V410.96H391.402L402.09 427.2V410.96H405.994V434H402.09L391.402 417.76V434H387.498ZM419.971 434.48C418.477 434.48 417.075 434.219 415.763 433.696C414.461 433.163 413.315 432.384 412.323 431.36C411.341 430.336 410.573 429.083 410.019 427.6C409.464 426.107 409.187 424.4 409.187 422.48C409.187 419.963 409.656 417.813 410.595 416.032C411.533 414.24 412.819 412.869 414.451 411.92C416.083 410.96 417.923 410.48 419.971 410.48C422.808 410.48 425.053 411.141 426.707 412.464C428.371 413.776 429.496 415.621 430.083 418L426.147 418.624C425.709 417.259 424.995 416.171 424.003 415.36C423.011 414.539 421.747 414.128 420.211 414.128C418.664 414.107 417.379 414.443 416.355 415.136C415.331 415.829 414.557 416.805 414.035 418.064C413.523 419.323 413.267 420.795 413.267 422.48C413.267 424.165 413.523 425.632 414.035 426.88C414.547 428.117 415.315 429.083 416.339 429.776C417.373 430.469 418.664 430.827 420.211 430.848C421.373 430.859 422.392 430.651 423.267 430.224C424.141 429.787 424.856 429.131 425.411 428.256C425.965 427.371 426.339 426.267 426.531 424.944H422.467V421.92H430.627C430.648 422.091 430.664 422.341 430.675 422.672C430.685 423.003 430.691 423.2 430.691 423.264C430.691 425.44 430.259 427.376 429.395 429.072C428.541 430.757 427.315 432.08 425.715 433.04C424.115 434 422.2 434.48 419.971 434.48ZM450.054 434.48C447.75 434.48 445.777 433.979 444.134 432.976C442.492 431.963 441.228 430.555 440.342 428.752C439.468 426.949 439.03 424.859 439.03 422.48C439.03 420.101 439.468 418.011 440.342 416.208C441.228 414.405 442.492 413.003 444.134 412C445.777 410.987 447.75 410.48 450.054 410.48C452.71 410.48 454.924 411.147 456.694 412.48C458.465 413.803 459.708 415.589 460.422 417.84L456.534 418.912C456.086 417.408 455.324 416.235 454.246 415.392C453.169 414.539 451.772 414.112 450.054 414.112C448.508 414.112 447.217 414.459 446.182 415.152C445.158 415.845 444.385 416.821 443.862 418.08C443.35 419.328 443.089 420.795 443.078 422.48C443.078 424.165 443.334 425.637 443.846 426.896C444.369 428.144 445.148 429.115 446.182 429.808C447.217 430.501 448.508 430.848 450.054 430.848C451.772 430.848 453.169 430.421 454.246 429.568C455.324 428.715 456.086 427.541 456.534 426.048L460.422 427.12C459.708 429.371 458.465 431.163 456.694 432.496C454.924 433.819 452.71 434.48 450.054 434.48ZM464.255 434V410.96H468.111V434H464.255ZM472.904 434V410.96H482.424C482.648 410.96 482.936 410.971 483.288 410.992C483.64 411.003 483.965 411.035 484.264 411.088C485.597 411.291 486.696 411.733 487.56 412.416C488.435 413.099 489.08 413.963 489.496 415.008C489.923 416.043 490.136 417.195 490.136 418.464C490.136 420.341 489.661 421.957 488.712 423.312C487.763 424.656 486.307 425.488 484.344 425.808L482.696 425.952H476.76V434H472.904ZM486.136 434L481.592 424.624L485.512 423.76L490.504 434H486.136ZM476.76 422.352H482.264C482.477 422.352 482.717 422.341 482.984 422.32C483.251 422.299 483.496 422.256 483.72 422.192C484.36 422.032 484.861 421.749 485.224 421.344C485.597 420.939 485.859 420.48 486.008 419.968C486.168 419.456 486.248 418.955 486.248 418.464C486.248 417.973 486.168 417.472 486.008 416.96C485.859 416.437 485.597 415.973 485.224 415.568C484.861 415.163 484.36 414.88 483.72 414.72C483.496 414.656 483.251 414.619 482.984 414.608C482.717 414.587 482.477 414.576 482.264 414.576H476.76V422.352ZM502.961 434.48C500.657 434.48 498.683 433.979 497.041 432.976C495.398 431.963 494.134 430.555 493.249 428.752C492.374 426.949 491.937 424.859 491.937 422.48C491.937 420.101 492.374 418.011 493.249 416.208C494.134 414.405 495.398 413.003 497.041 412C498.683 410.987 500.657 410.48 502.961 410.48C505.617 410.48 507.83 411.147 509.601 412.48C511.371 413.803 512.614 415.589 513.329 417.84L509.441 418.912C508.993 417.408 508.23 416.235 507.153 415.392C506.075 414.539 504.678 414.112 502.961 414.112C501.414 414.112 500.123 414.459 499.089 415.152C498.065 415.845 497.291 416.821 496.769 418.08C496.257 419.328 495.995 420.795 495.985 422.48C495.985 424.165 496.241 425.637 496.753 426.896C497.275 428.144 498.054 429.115 499.089 429.808C500.123 430.501 501.414 430.848 502.961 430.848C504.678 430.848 506.075 430.421 507.153 429.568C508.23 428.715 508.993 427.541 509.441 426.048L513.329 427.12C512.614 429.371 511.371 431.163 509.601 432.496C507.83 433.819 505.617 434.48 502.961 434.48ZM517.162 434V410.96H521.018V430.384H531.194V434H517.162ZM533.904 434V410.96H548.784V414.576H537.76V420.256H546.864V423.872H537.76V430.384H548.784V434H533.904Z" fill="white"/>
<path d="M275.74 116V92.96H290.62V96.576H279.596V102.256H288.7V105.872H279.596V112.384H290.62V116H275.74ZM303.39 116.48C301.086 116.48 299.113 115.979 297.47 114.976C295.828 113.963 294.564 112.555 293.678 110.752C292.804 108.949 292.366 106.859 292.366 104.48C292.366 102.101 292.804 100.011 293.678 98.208C294.564 96.4053 295.828 95.0027 297.47 94C299.113 92.9867 301.086 92.48 303.39 92.48C306.046 92.48 308.26 93.1467 310.03 94.48C311.801 95.8027 313.044 97.5893 313.758 99.84L309.87 100.912C309.422 99.408 308.66 98.2347 307.582 97.392C306.505 96.5387 305.108 96.112 303.39 96.112C301.844 96.112 300.553 96.4587 299.518 97.152C298.494 97.8453 297.721 98.8213 297.198 100.08C296.686 101.328 296.425 102.795 296.414 104.48C296.414 106.165 296.67 107.637 297.182 108.896C297.705 110.144 298.484 111.115 299.518 111.808C300.553 112.501 301.844 112.848 303.39 112.848C305.108 112.848 306.505 112.421 307.582 111.568C308.66 110.715 309.422 109.541 309.87 108.048L313.758 109.12C313.044 111.371 311.801 113.163 310.03 114.496C308.26 115.819 306.046 116.48 303.39 116.48ZM327.015 116.48C324.711 116.48 322.738 115.979 321.095 114.976C319.453 113.963 318.189 112.555 317.303 110.752C316.429 108.949 315.991 106.859 315.991 104.48C315.991 102.101 316.429 100.011 317.303 98.208C318.189 96.4053 319.453 95.0027 321.095 94C322.738 92.9867 324.711 92.48 327.015 92.48C329.319 92.48 331.293 92.9867 332.935 94C334.589 95.0027 335.853 96.4053 336.727 98.208C337.613 100.011 338.055 102.101 338.055 104.48C338.055 106.859 337.613 108.949 336.727 110.752C335.853 112.555 334.589 113.963 332.935 114.976C331.293 115.979 329.319 116.48 327.015 116.48ZM327.015 112.848C328.562 112.859 329.847 112.517 330.871 111.824C331.906 111.131 332.679 110.155 333.191 108.896C333.714 107.637 333.975 106.165 333.975 104.48C333.975 102.795 333.714 101.333 333.191 100.096C332.679 98.848 331.906 97.8773 330.871 97.184C329.847 96.4907 328.562 96.1333 327.015 96.112C325.469 96.1013 324.183 96.4427 323.159 97.136C322.135 97.8293 321.362 98.8053 320.839 100.064C320.327 101.323 320.071 102.795 320.071 104.48C320.071 106.165 320.327 107.632 320.839 108.88C321.351 110.117 322.119 111.083 323.143 111.776C324.178 112.469 325.469 112.827 327.015 112.848ZM349.768 116.48C348.083 116.48 346.563 116.187 345.208 115.6C343.864 115.013 342.755 114.176 341.88 113.088C341.016 111.989 340.467 110.688 340.232 109.184L344.232 108.576C344.573 109.941 345.272 110.997 346.328 111.744C347.395 112.491 348.621 112.864 350.008 112.864C350.829 112.864 351.603 112.736 352.328 112.48C353.053 112.224 353.64 111.851 354.088 111.36C354.547 110.869 354.776 110.267 354.776 109.552C354.776 109.232 354.723 108.939 354.616 108.672C354.509 108.395 354.349 108.149 354.136 107.936C353.933 107.723 353.667 107.531 353.336 107.36C353.016 107.179 352.643 107.024 352.216 106.896L346.264 105.136C345.752 104.987 345.197 104.789 344.6 104.544C344.013 104.288 343.453 103.941 342.92 103.504C342.397 103.056 341.965 102.491 341.624 101.808C341.293 101.115 341.128 100.261 341.128 99.248C341.128 97.7653 341.501 96.5227 342.248 95.52C343.005 94.5067 344.019 93.7493 345.288 93.248C346.568 92.7467 347.987 92.5013 349.544 92.512C351.123 92.5227 352.531 92.7947 353.768 93.328C355.005 93.8507 356.04 94.6133 356.872 95.616C357.704 96.6187 358.291 97.8293 358.632 99.248L354.488 99.968C354.317 99.1573 353.987 98.4693 353.496 97.904C353.016 97.328 352.424 96.8907 351.72 96.592C351.027 96.2933 350.285 96.1333 349.496 96.112C348.728 96.1013 348.013 96.2187 347.352 96.464C346.701 96.6987 346.173 97.04 345.768 97.488C345.373 97.936 345.176 98.4587 345.176 99.056C345.176 99.6213 345.347 100.085 345.688 100.448C346.029 100.8 346.451 101.083 346.952 101.296C347.464 101.499 347.981 101.669 348.504 101.808L352.632 102.96C353.197 103.109 353.832 103.312 354.536 103.568C355.24 103.824 355.917 104.181 356.568 104.64C357.219 105.099 357.752 105.701 358.168 106.448C358.595 107.195 358.808 108.144 358.808 109.296C358.808 110.491 358.557 111.541 358.056 112.448C357.565 113.344 356.899 114.091 356.056 114.688C355.213 115.285 354.248 115.733 353.16 116.032C352.083 116.331 350.952 116.48 349.768 116.48ZM366.903 116V106.56L359.062 92.96H363.559L368.855 102.144L374.135 92.96H378.631L370.807 106.56V116H366.903ZM388.424 116.48C386.739 116.48 385.219 116.187 383.864 115.6C382.52 115.013 381.411 114.176 380.536 113.088C379.672 111.989 379.123 110.688 378.888 109.184L382.888 108.576C383.23 109.941 383.928 110.997 384.984 111.744C386.051 112.491 387.278 112.864 388.664 112.864C389.486 112.864 390.259 112.736 390.984 112.48C391.71 112.224 392.296 111.851 392.744 111.36C393.203 110.869 393.432 110.267 393.432 109.552C393.432 109.232 393.379 108.939 393.272 108.672C393.166 108.395 393.006 108.149 392.792 107.936C392.59 107.723 392.323 107.531 391.992 107.36C391.672 107.179 391.299 107.024 390.872 106.896L384.92 105.136C384.408 104.987 383.854 104.789 383.256 104.544C382.67 104.288 382.11 103.941 381.576 103.504C381.054 103.056 380.622 102.491 380.28 101.808C379.95 101.115 379.784 100.261 379.784 99.248C379.784 97.7653 380.158 96.5227 380.904 95.52C381.662 94.5067 382.675 93.7493 383.944 93.248C385.224 92.7467 386.643 92.5013 388.2 92.512C389.779 92.5227 391.187 92.7947 392.424 93.328C393.662 93.8507 394.696 94.6133 395.528 95.616C396.36 96.6187 396.947 97.8293 397.288 99.248L393.144 99.968C392.974 99.1573 392.643 98.4693 392.152 97.904C391.672 97.328 391.08 96.8907 390.376 96.592C389.683 96.2933 388.942 96.1333 388.152 96.112C387.384 96.1013 386.67 96.2187 386.008 96.464C385.358 96.6987 384.83 97.04 384.424 97.488C384.03 97.936 383.832 98.4587 383.832 99.056C383.832 99.6213 384.003 100.085 384.344 100.448C384.686 100.8 385.107 101.083 385.608 101.296C386.12 101.499 386.638 101.669 387.16 101.808L391.288 102.96C391.854 103.109 392.488 103.312 393.192 103.568C393.896 103.824 394.574 104.181 395.224 104.64C395.875 105.099 396.408 105.701 396.824 106.448C397.251 107.195 397.464 108.144 397.464 109.296C397.464 110.491 397.214 111.541 396.712 112.448C396.222 113.344 395.555 114.091 394.712 114.688C393.87 115.285 392.904 115.733 391.816 116.032C390.739 116.331 389.608 116.48 388.424 116.48ZM406.464 116V96.576H399.008V92.96H417.776V96.576H410.32V116H406.464ZM420.334 116V92.96H435.214V96.576H424.19V102.256H433.294V105.872H424.19V112.384H435.214V116H420.334ZM439.053 116V92.96H442.525L450.493 109.28L458.461 92.96H461.933V116H458.333V101.232L451.261 116H449.725L442.669 101.232V116H439.053ZM482.578 116.48C480.274 116.48 478.3 115.979 476.658 114.976C475.015 113.963 473.751 112.555 472.866 110.752C471.991 108.949 471.554 106.859 471.554 104.48C471.554 102.101 471.991 100.011 472.866 98.208C473.751 96.4053 475.015 95.0027 476.658 94C478.3 92.9867 480.274 92.48 482.578 92.48C485.234 92.48 487.447 93.1467 489.218 94.48C490.988 95.8027 492.231 97.5893 492.946 99.84L489.058 100.912C488.61 99.408 487.847 98.2347 486.77 97.392C485.692 96.5387 484.295 96.112 482.578 96.112C481.031 96.112 479.74 96.4587 478.706 97.152C477.682 97.8453 476.908 98.8213 476.386 100.08C475.874 101.328 475.612 102.795 475.602 104.48C475.602 106.165 475.858 107.637 476.37 108.896C476.892 110.144 477.671 111.115 478.706 111.808C479.74 112.501 481.031 112.848 482.578 112.848C484.295 112.848 485.692 112.421 486.77 111.568C487.847 110.715 488.61 109.541 489.058 108.048L492.946 109.12C492.231 111.371 490.988 113.163 489.218 114.496C487.447 115.819 485.234 116.48 482.578 116.48ZM496.779 116V92.96H500.635V116H496.779ZM505.428 116V92.96H514.948C515.172 92.96 515.46 92.9707 515.812 92.992C516.164 93.0027 516.489 93.0347 516.788 93.088C518.121 93.2907 519.22 93.7333 520.083 94.416C520.958 95.0987 521.604 95.9627 522.02 97.008C522.446 98.0427 522.66 99.1947 522.66 100.464C522.66 102.341 522.185 103.957 521.236 105.312C520.286 106.656 518.83 107.488 516.868 107.808L515.22 107.952H509.284V116H505.428ZM518.66 116L514.116 106.624L518.036 105.76L523.028 116H518.66ZM509.284 104.352H514.788C515.001 104.352 515.241 104.341 515.508 104.32C515.774 104.299 516.02 104.256 516.244 104.192C516.884 104.032 517.385 103.749 517.748 103.344C518.121 102.939 518.382 102.48 518.532 101.968C518.692 101.456 518.772 100.955 518.772 100.464C518.772 99.9733 518.692 99.472 518.532 98.96C518.382 98.4373 518.121 97.9733 517.748 97.568C517.385 97.1627 516.884 96.88 516.244 96.72C516.02 96.656 515.774 96.6187 515.508 96.608C515.241 96.5867 515.001 96.576 514.788 96.576H509.284V104.352ZM535.484 116.48C533.18 116.48 531.207 115.979 529.564 114.976C527.921 113.963 526.657 112.555 525.772 110.752C524.897 108.949 524.46 106.859 524.46 104.48C524.46 102.101 524.897 100.011 525.772 98.208C526.657 96.4053 527.921 95.0027 529.564 94C531.207 92.9867 533.18 92.48 535.484 92.48C538.14 92.48 540.353 93.1467 542.124 94.48C543.895 95.8027 545.137 97.5893 545.852 99.84L541.964 100.912C541.516 99.408 540.753 98.2347 539.676 97.392C538.599 96.5387 537.201 96.112 535.484 96.112C533.937 96.112 532.647 96.4587 531.612 97.152C530.588 97.8453 529.815 98.8213 529.292 100.08C528.78 101.328 528.519 102.795 528.508 104.48C528.508 106.165 528.764 107.637 529.276 108.896C529.799 110.144 530.577 111.115 531.612 111.808C532.647 112.501 533.937 112.848 535.484 112.848C537.201 112.848 538.599 112.421 539.676 111.568C540.753 110.715 541.516 109.541 541.964 108.048L545.852 109.12C545.137 111.371 543.895 113.163 542.124 114.496C540.353 115.819 538.14 116.48 535.484 116.48ZM549.685 116V92.96H553.541V112.384H563.717V116H549.685ZM566.428 116V92.96H581.308V96.576H570.284V102.256H579.388V105.872H570.284V112.384H581.308V116H566.428Z" fill="black"/>
<defs>
<radialGradient id="paint0_radial_2029_11359" cx="0" cy="0" r="1" gradientUnits="userSpaceOnUse" gradientTransform="translate(1275.29 1107.29) rotate(90) scale(558.5)">
<stop stop-color="#6543FE"/>
<stop offset="0.706731" stop-color="#E1DDFF"/>
</radialGradient>
<radialGradient id="paint1_radial_2029_11359" cx="0" cy="0" r="1" gradientUnits="userSpaceOnUse" gradientTransform="translate(428.5 594) rotate(90) scale(966 966)">
<stop offset="0.200542" stop-color="white" stop-opacity="0.6"/>
<stop offset="1" stop-color="white" stop-opacity="0.4"/>
</radialGradient>
</defs>
</svg>
