<svg width="194" height="126" viewBox="0 0 194 126" fill="none" xmlns="http://www.w3.org/2000/svg">
<path d="M64.6641 48C64.6641 30.3269 78.991 16 96.6641 16C114.337 16 128.664 30.3269 128.664 48C128.664 65.6731 114.337 80 96.6641 80C78.991 80 64.6641 65.6731 64.6641 48Z" fill="#F3F4F6"/>
<path d="M105.997 38.6665H87.3307C85.858 38.6665 84.6641 39.8604 84.6641 41.3332V54.6665C84.6641 56.1393 85.858 57.3332 87.3307 57.3332H105.997C107.47 57.3332 108.664 56.1393 108.664 54.6665V41.3332C108.664 39.8604 107.47 38.6665 105.997 38.6665Z" stroke="#364153" stroke-width="2" stroke-linecap="round" stroke-linejoin="round"/>
<path d="M84.6641 41.3335L96.6641 49.3335L108.664 41.3335" stroke="#364153" stroke-width="2" stroke-linecap="round" stroke-linejoin="round"/>
<path d="M80.9136 106.5V96.3182H87.0585V97.4119H82.1466V100.852H86.7403V101.946H82.1466V105.406H87.1381V106.5H80.9136ZM88.9713 106.5V98.8636H90.1048V100.057H90.2043C90.3634 99.6491 90.6202 99.3326 90.9749 99.1072C91.3295 98.8786 91.7554 98.7642 92.2526 98.7642C92.7564 98.7642 93.1756 98.8786 93.5104 99.1072C93.8485 99.3326 94.1119 99.6491 94.3009 100.057H94.3804C94.576 99.6624 94.8693 99.3492 95.2604 99.1172C95.6515 98.8819 96.1205 98.7642 96.6673 98.7642C97.3501 98.7642 97.9086 98.978 98.3428 99.4055C98.777 99.8298 98.9941 100.491 98.9941 101.389V106.5H97.8208V101.389C97.8208 100.826 97.6666 100.423 97.3584 100.181C97.0502 99.9392 96.6872 99.8182 96.2696 99.8182C95.7327 99.8182 95.3167 99.9806 95.0218 100.305C94.7268 100.627 94.5793 101.035 94.5793 101.528V106.5H93.3861V101.27C93.3861 100.836 93.2452 100.486 92.9635 100.221C92.6818 99.9524 92.3189 99.8182 91.8747 99.8182C91.5698 99.8182 91.2848 99.8994 91.0196 100.062C90.7578 100.224 90.5457 100.45 90.3833 100.738C90.2242 101.023 90.1446 101.353 90.1446 101.727V106.5H88.9713ZM103.236 106.679C102.752 106.679 102.313 106.588 101.919 106.406C101.524 106.22 101.211 105.953 100.979 105.605C100.747 105.254 100.631 104.83 100.631 104.332C100.631 103.895 100.717 103.54 100.889 103.268C101.062 102.993 101.292 102.778 101.581 102.622C101.869 102.466 102.187 102.35 102.535 102.274C102.886 102.195 103.239 102.132 103.594 102.085C104.058 102.026 104.434 101.981 104.723 101.951C105.014 101.918 105.226 101.863 105.359 101.787C105.495 101.711 105.563 101.578 105.563 101.389V101.349C105.563 100.859 105.429 100.478 105.16 100.206C104.895 99.9342 104.492 99.7983 103.952 99.7983C103.392 99.7983 102.953 99.9209 102.634 100.166C102.316 100.411 102.093 100.673 101.963 100.952L100.85 100.554C101.049 100.09 101.314 99.7287 101.645 99.4702C101.98 99.2083 102.344 99.026 102.739 98.9233C103.137 98.8172 103.528 98.7642 103.912 98.7642C104.157 98.7642 104.439 98.794 104.757 98.8537C105.079 98.91 105.389 99.0277 105.687 99.2067C105.989 99.3857 106.239 99.6558 106.438 100.017C106.637 100.378 106.736 100.862 106.736 101.469V106.5H105.563V105.466H105.503C105.424 105.632 105.291 105.809 105.105 105.998C104.92 106.187 104.673 106.348 104.365 106.48C104.056 106.613 103.68 106.679 103.236 106.679ZM103.415 105.625C103.879 105.625 104.27 105.534 104.588 105.352C104.91 105.169 105.152 104.934 105.314 104.646C105.48 104.357 105.563 104.054 105.563 103.736V102.662C105.513 102.722 105.404 102.776 105.235 102.826C105.069 102.872 104.877 102.914 104.658 102.95C104.443 102.983 104.232 103.013 104.027 103.04C103.824 103.063 103.66 103.083 103.534 103.099C103.229 103.139 102.944 103.204 102.679 103.293C102.417 103.379 102.205 103.51 102.043 103.686C101.884 103.858 101.804 104.094 101.804 104.392C101.804 104.8 101.955 105.108 102.257 105.317C102.562 105.522 102.948 105.625 103.415 105.625ZM108.727 106.5V98.8636H109.9V106.5H108.727ZM109.324 97.5909C109.095 97.5909 108.898 97.513 108.732 97.3572C108.57 97.2015 108.489 97.0142 108.489 96.7955C108.489 96.5767 108.57 96.3894 108.732 96.2337C108.898 96.0779 109.095 96 109.324 96C109.552 96 109.748 96.0779 109.91 96.2337C110.076 96.3894 110.159 96.5767 110.159 96.7955C110.159 97.0142 110.076 97.2015 109.91 97.3572C109.748 97.513 109.552 97.5909 109.324 97.5909ZM113.072 96.3182V106.5H111.899V96.3182H113.072Z" fill="#4A5565"/>
</svg>
