<svg width="194" height="126" viewBox="0 0 194 126" fill="none" xmlns="http://www.w3.org/2000/svg">
<path d="M64.668 48C64.668 30.3269 78.9949 16 96.668 16C114.341 16 128.668 30.3269 128.668 48C128.668 65.6731 114.341 80 96.668 80C78.9949 80 64.668 65.6731 64.668 48Z" fill="#F3F4F6"/>
<path d="M104.669 37.3335H88.6686C87.1959 37.3335 86.002 38.5274 86.002 40.0002V56.0002C86.002 57.4729 87.1959 58.6668 88.6686 58.6668H104.669C106.141 58.6668 107.335 57.4729 107.335 56.0002V40.0002C107.335 38.5274 106.141 37.3335 104.669 37.3335Z" stroke="#364153" stroke-width="2" stroke-linecap="round" stroke-linejoin="round"/>
<path d="M91.334 46.6665V53.3332" stroke="#364153" stroke-width="2" stroke-linecap="round" stroke-linejoin="round"/>
<path d="M91.334 42.6665V43.3332" stroke="#364153" stroke-width="2" stroke-linecap="round" stroke-linejoin="round"/>
<path d="M96.668 46.6665V53.3332" stroke="#364153" stroke-width="2" stroke-linecap="round" stroke-linejoin="round"/>
<path d="M102.002 50V53.3333" stroke="#364153" stroke-width="2" stroke-linecap="round" stroke-linejoin="round"/>
<path d="M96.668 49.3332C96.668 47.3332 98.0013 46.6665 99.3346 46.6665C100.668 46.6665 102.001 47.3332 102.001 49.3332" stroke="#364153" stroke-width="2" stroke-linecap="round" stroke-linejoin="round"/>
<path d="M71.1402 106.5V96.3182H72.3731V105.406H77.1061V106.5H71.1402ZM78.7057 106.5V98.8636H79.879V106.5H78.7057ZM79.3023 97.5909C79.0736 97.5909 78.8764 97.513 78.7107 97.3572C78.5483 97.2015 78.4671 97.0142 78.4671 96.7955C78.4671 96.5767 78.5483 96.3894 78.7107 96.2337C78.8764 96.0779 79.0736 96 79.3023 96C79.531 96 79.7265 96.0779 79.8889 96.2337C80.0547 96.3894 80.1375 96.5767 80.1375 96.7955C80.1375 97.0142 80.0547 97.2015 79.8889 97.3572C79.7265 97.513 79.531 97.5909 79.3023 97.5909ZM83.0509 101.906V106.5H81.8776V98.8636H83.0111V100.057H83.1105C83.2895 99.669 83.5613 99.3575 83.9259 99.1222C84.2905 98.8835 84.7611 98.7642 85.3378 98.7642C85.8548 98.7642 86.3073 98.8703 86.695 99.0824C87.0828 99.2912 87.3844 99.6094 87.5999 100.037C87.8153 100.461 87.923 100.998 87.923 101.648V106.5H86.7497V101.727C86.7497 101.127 86.594 100.66 86.2824 100.325C85.9709 99.9872 85.5433 99.8182 84.9997 99.8182C84.6252 99.8182 84.2905 99.8994 83.9955 100.062C83.7038 100.224 83.4735 100.461 83.3044 100.773C83.1354 101.084 83.0509 101.462 83.0509 101.906ZM91.0104 103.716L90.9905 102.264H91.2291L94.57 98.8636H96.0218L92.4621 102.463H92.3627L91.0104 103.716ZM89.9166 106.5V96.3182H91.0899V106.5H89.9166ZM94.7689 106.5L91.786 102.722L92.6212 101.906L96.2604 106.5H94.7689ZM100.269 106.659C99.5329 106.659 98.8982 106.497 98.3646 106.172C97.8343 105.844 97.425 105.386 97.1366 104.8C96.8516 104.21 96.7091 103.524 96.7091 102.741C96.7091 101.959 96.8516 101.27 97.1366 100.673C97.425 100.073 97.826 99.6061 98.3398 99.2713C98.8568 98.9332 99.46 98.7642 100.149 98.7642C100.547 98.7642 100.94 98.8305 101.328 98.9631C101.715 99.0956 102.068 99.3111 102.387 99.6094C102.705 99.9044 102.958 100.295 103.147 100.783C103.336 101.27 103.431 101.87 103.431 102.582V103.08H97.5443V102.065H102.237C102.237 101.634 102.151 101.25 101.979 100.912C101.81 100.574 101.568 100.307 101.253 100.112C100.942 99.916 100.574 99.8182 100.149 99.8182C99.6821 99.8182 99.2777 99.9342 98.9363 100.166C98.5983 100.395 98.3381 100.693 98.1558 101.061C97.9735 101.429 97.8824 101.823 97.8824 102.244V102.92C97.8824 103.497 97.9818 103.986 98.1807 104.387C98.3828 104.785 98.6629 105.088 99.0209 105.297C99.3788 105.502 99.7948 105.605 100.269 105.605C100.577 105.605 100.855 105.562 101.104 105.476C101.356 105.386 101.573 105.254 101.755 105.078C101.938 104.899 102.078 104.677 102.178 104.412L103.311 104.73C103.192 105.115 102.992 105.453 102.71 105.744C102.428 106.033 102.08 106.258 101.666 106.42C101.251 106.58 100.786 106.659 100.269 106.659ZM107.949 106.659C107.312 106.659 106.75 106.498 106.263 106.177C105.776 105.852 105.395 105.395 105.12 104.805C104.845 104.211 104.707 103.51 104.707 102.702C104.707 101.9 104.845 101.204 105.12 100.614C105.395 100.024 105.778 99.5679 106.268 99.2464C106.759 98.925 107.325 98.7642 107.968 98.7642C108.466 98.7642 108.858 98.8471 109.147 99.0128C109.438 99.1752 109.66 99.3608 109.813 99.5696C109.969 99.7751 110.09 99.9441 110.176 100.077H110.275V96.3182H111.449V106.5H110.315V105.327H110.176C110.09 105.466 109.967 105.642 109.808 105.854C109.649 106.062 109.422 106.25 109.127 106.415C108.832 106.578 108.439 106.659 107.949 106.659ZM108.108 105.605C108.578 105.605 108.976 105.482 109.301 105.237C109.626 104.989 109.873 104.646 110.042 104.208C110.211 103.767 110.295 103.259 110.295 102.682C110.295 102.112 110.212 101.613 110.047 101.185C109.881 100.754 109.636 100.42 109.311 100.181C108.986 99.9392 108.585 99.8182 108.108 99.8182C107.611 99.8182 107.196 99.9458 106.865 100.201C106.537 100.453 106.29 100.796 106.124 101.23C105.962 101.661 105.88 102.145 105.88 102.682C105.88 103.225 105.963 103.719 106.129 104.163C106.298 104.604 106.547 104.955 106.875 105.217C107.206 105.476 107.617 105.605 108.108 105.605ZM115.002 96.3182V106.5H113.769V96.3182H115.002ZM118.338 101.906V106.5H117.165V98.8636H118.298V100.057H118.398C118.577 99.669 118.848 99.3575 119.213 99.1222C119.578 98.8835 120.048 98.7642 120.625 98.7642C121.142 98.7642 121.594 98.8703 121.982 99.0824C122.37 99.2912 122.672 99.6094 122.887 100.037C123.102 100.461 123.21 100.998 123.21 101.648V106.5H122.037V101.727C122.037 101.127 121.881 100.66 121.57 100.325C121.258 99.9872 120.83 99.8182 120.287 99.8182C119.912 99.8182 119.578 99.8994 119.283 100.062C118.991 100.224 118.761 100.461 118.592 100.773C118.422 101.084 118.338 101.462 118.338 101.906Z" fill="#4A5565"/>
</svg>
