<svg width="194" height="126" viewBox="0 0 194 126" fill="none" xmlns="http://www.w3.org/2000/svg">
<path d="M64.668 48C64.668 30.3269 78.9949 16 96.668 16C114.341 16 128.668 30.3269 128.668 48C128.668 65.6731 114.341 80 96.668 80C78.9949 80 64.668 65.6731 64.668 48Z" fill="#F3F4F6"/>
<path d="M99.3353 34.6665H88.6686C87.9614 34.6665 87.2831 34.9475 86.783 35.4476C86.2829 35.9476 86.002 36.6259 86.002 37.3332V58.6665C86.002 59.3737 86.2829 60.052 86.783 60.5521C87.2831 61.0522 87.9614 61.3332 88.6686 61.3332H104.669C105.376 61.3332 106.054 61.0522 106.554 60.5521C107.054 60.052 107.335 59.3737 107.335 58.6665V42.6665L99.3353 34.6665Z" stroke="#364153" stroke-width="2" stroke-linecap="round" stroke-linejoin="round"/>
<path d="M99.334 34.6665V42.6665H107.334" stroke="#364153" stroke-width="2" stroke-linecap="round" stroke-linejoin="round"/>
<path d="M91.334 49.3335H102.001" stroke="#364153" stroke-width="2" stroke-linecap="round" stroke-linejoin="round"/>
<path d="M91.334 54.6665H102.001" stroke="#364153" stroke-width="2" stroke-linecap="round" stroke-linejoin="round"/>
<path d="M91.334 44H94.0007" stroke="#364153" stroke-width="2" stroke-linecap="round" stroke-linejoin="round"/>
<path d="M72.524 106.5V96.3182H75.9643C76.7598 96.3182 77.4127 96.4541 77.9231 96.7259C78.4335 96.9943 78.8114 97.3639 79.0566 97.8345C79.3019 98.3052 79.4245 98.8404 79.4245 99.4403C79.4245 100.04 79.3019 100.572 79.0566 101.036C78.8114 101.5 78.4352 101.865 77.9281 102.13C77.421 102.392 76.773 102.523 75.9842 102.523H73.2001V101.409H75.9444C76.488 101.409 76.9255 101.33 77.2569 101.17C77.5917 101.011 77.8336 100.786 77.9828 100.494C78.1352 100.199 78.2115 99.848 78.2115 99.4403C78.2115 99.0327 78.1352 98.6764 77.9828 98.3714C77.8303 98.0665 77.5867 97.8312 77.252 97.6655C76.9172 97.4964 76.4747 97.4119 75.9245 97.4119H73.7569V106.5H72.524ZM77.3166 101.926L79.8223 106.5H78.3904L75.9245 101.926H77.3166ZM84.2892 106.659C83.5534 106.659 82.9187 106.497 82.3851 106.172C81.8548 105.844 81.4455 105.386 81.1571 104.8C80.8721 104.21 80.7296 103.524 80.7296 102.741C80.7296 101.959 80.8721 101.27 81.1571 100.673C81.4455 100.073 81.8465 99.6061 82.3603 99.2713C82.8773 98.9332 83.4805 98.7642 84.1699 98.7642C84.5676 98.7642 84.9604 98.8305 85.3482 98.9631C85.736 99.0956 86.089 99.3111 86.4071 99.6094C86.7253 99.9044 86.9789 100.295 87.1678 100.783C87.3567 101.27 87.4512 101.87 87.4512 102.582V103.08H81.5648V102.065H86.258C86.258 101.634 86.1718 101.25 85.9995 100.912C85.8304 100.574 85.5885 100.307 85.2736 100.112C84.9621 99.916 84.5942 99.8182 84.1699 99.8182C83.7026 99.8182 83.2982 99.9342 82.9569 100.166C82.6188 100.395 82.3586 100.693 82.1763 101.061C81.994 101.429 81.9029 101.823 81.9029 102.244V102.92C81.9029 103.497 82.0023 103.986 82.2012 104.387C82.4033 104.785 82.6834 105.088 83.0414 105.297C83.3993 105.502 83.8153 105.605 84.2892 105.605C84.5975 105.605 84.8759 105.562 85.1245 105.476C85.3764 105.386 85.5935 105.254 85.7757 105.078C85.958 104.899 86.0989 104.677 86.1983 104.412L87.3319 104.73C87.2125 105.115 87.012 105.453 86.7303 105.744C86.4486 106.033 86.1006 106.258 85.6863 106.42C85.272 106.58 84.8063 106.659 84.2892 106.659ZM94.4947 100.574L93.4407 100.872C93.3744 100.696 93.2766 100.526 93.1474 100.36C93.0214 100.191 92.8491 100.052 92.6303 99.9425C92.4116 99.8331 92.1315 99.7784 91.7901 99.7784C91.3228 99.7784 90.9334 99.8861 90.6218 100.102C90.3136 100.314 90.1594 100.584 90.1594 100.912C90.1594 101.204 90.2655 101.434 90.4776 101.603C90.6897 101.772 91.0212 101.913 91.4719 102.026L92.6055 102.304C93.2882 102.47 93.797 102.723 94.1317 103.065C94.4665 103.403 94.6339 103.839 94.6339 104.372C94.6339 104.81 94.5079 105.201 94.256 105.545C94.0075 105.89 93.6594 106.162 93.212 106.361C92.7646 106.56 92.2442 106.659 91.6509 106.659C90.872 106.659 90.2274 106.49 89.717 106.152C89.2066 105.814 88.8834 105.32 88.7475 104.67L89.8612 104.392C89.9672 104.803 90.1677 105.111 90.4627 105.317C90.761 105.522 91.1504 105.625 91.631 105.625C92.1779 105.625 92.6121 105.509 92.9336 105.277C93.2584 105.042 93.4208 104.76 93.4208 104.432C93.4208 104.167 93.328 103.945 93.1424 103.766C92.9568 103.583 92.6718 103.447 92.2873 103.358L91.0146 103.06C90.3152 102.894 89.8015 102.637 89.4734 102.289C89.1486 101.938 88.9862 101.499 88.9862 100.972C88.9862 100.541 89.1071 100.16 89.3491 99.8281C89.5943 99.4967 89.9274 99.2365 90.3484 99.0476C90.7726 98.8587 91.2532 98.7642 91.7901 98.7642C92.5458 98.7642 93.1391 98.9299 93.57 99.2614C94.0041 99.5928 94.3124 100.03 94.4947 100.574ZM101.062 103.378V98.8636H102.235V106.5H101.062V105.207H100.983C100.804 105.595 100.525 105.925 100.147 106.197C99.7695 106.465 99.2923 106.599 98.7156 106.599C98.2383 106.599 97.814 106.495 97.4428 106.286C97.0716 106.074 96.7799 105.756 96.5678 105.332C96.3557 104.904 96.2496 104.366 96.2496 103.716V98.8636H97.4229V103.636C97.4229 104.193 97.5787 104.637 97.8903 104.969C98.2051 105.3 98.6062 105.466 99.0934 105.466C99.3851 105.466 99.6817 105.391 99.9833 105.242C100.288 105.093 100.543 104.864 100.749 104.556C100.958 104.248 101.062 103.855 101.062 103.378ZM104.234 106.5V98.8636H105.368V100.057H105.467C105.626 99.6491 105.883 99.3326 106.238 99.1072C106.592 98.8786 107.018 98.7642 107.515 98.7642C108.019 98.7642 108.438 98.8786 108.773 99.1072C109.111 99.3326 109.375 99.6491 109.564 100.057H109.643C109.839 99.6624 110.132 99.3492 110.523 99.1172C110.914 98.8819 111.383 98.7642 111.93 98.7642C112.613 98.7642 113.171 98.978 113.605 99.4055C114.04 99.8298 114.257 100.491 114.257 101.389V106.5H113.083V101.389C113.083 100.826 112.929 100.423 112.621 100.181C112.313 99.9392 111.95 99.8182 111.532 99.8182C110.995 99.8182 110.579 99.9806 110.284 100.305C109.989 100.627 109.842 101.035 109.842 101.528V106.5H108.649V101.27C108.649 100.836 108.508 100.486 108.226 100.221C107.944 99.9524 107.582 99.8182 107.137 99.8182C106.833 99.8182 106.547 99.8994 106.282 100.062C106.02 100.224 105.808 100.45 105.646 100.738C105.487 101.023 105.407 101.353 105.407 101.727V106.5H104.234ZM119.453 106.659C118.718 106.659 118.083 106.497 117.549 106.172C117.019 105.844 116.61 105.386 116.321 104.8C116.036 104.21 115.894 103.524 115.894 102.741C115.894 101.959 116.036 101.27 116.321 100.673C116.61 100.073 117.011 99.6061 117.524 99.2713C118.041 98.9332 118.645 98.7642 119.334 98.7642C119.732 98.7642 120.124 98.8305 120.512 98.9631C120.9 99.0956 121.253 99.3111 121.571 99.6094C121.889 99.9044 122.143 100.295 122.332 100.783C122.521 101.27 122.615 101.87 122.615 102.582V103.08H116.729V102.065H121.422C121.422 101.634 121.336 101.25 121.164 100.912C120.994 100.574 120.753 100.307 120.438 100.112C120.126 99.916 119.758 99.8182 119.334 99.8182C118.867 99.8182 118.462 99.9342 118.121 100.166C117.783 100.395 117.523 100.693 117.34 101.061C117.158 101.429 117.067 101.823 117.067 102.244V102.92C117.067 103.497 117.166 103.986 117.365 104.387C117.567 104.785 117.847 105.088 118.205 105.297C118.563 105.502 118.979 105.605 119.453 105.605C119.762 105.605 120.04 105.562 120.289 105.476C120.54 105.386 120.758 105.254 120.94 105.078C121.122 104.899 121.263 104.677 121.362 104.412L122.496 104.73C122.377 105.115 122.176 105.453 121.894 105.744C121.613 106.033 121.265 106.258 120.85 106.42C120.436 106.58 119.97 106.659 119.453 106.659Z" fill="#4A5565"/>
</svg>
